<svg width="12" height="18" viewBox="0 0 12 18" fill="none" xmlns="http://www.w3.org/2000/svg">
<path d="M10.9724 6.02612C10.9724 6.71607 10.6533 7.76689 10.1168 9.01347C9.58921 10.2396 8.88198 11.5876 8.16927 12.8455C7.45748 14.1018 6.745 15.2597 6.21009 16.1041C6.02942 16.3893 5.86915 16.6385 5.7362 16.8434C5.60324 16.6385 5.44297 16.3893 5.2623 16.1041C4.7274 15.2597 4.01491 14.1018 3.30312 12.8455C2.59042 11.5876 1.88319 10.2396 1.35556 9.01347C0.819136 7.76689 0.5 6.71607 0.5 6.02612C0.5 4.53332 0.996495 3.20933 1.88301 2.26288C2.76521 1.32104 4.06339 0.720703 5.7362 0.720703C7.409 0.720703 8.70718 1.32104 9.58938 2.26288C10.4759 3.20933 10.9724 4.53332 10.9724 6.02612Z" stroke="#0118A6"/>
<path d="M7.84363 5.48067C7.84363 6.87345 6.84808 7.90275 5.73627 7.90275C4.62446 7.90275 3.62891 6.87345 3.62891 5.48067C3.62891 4.0879 4.62446 3.05859 5.73627 3.05859C6.84808 3.05859 7.84363 4.0879 7.84363 5.48067Z" stroke="#0118A6"/>
</svg>
